<?xml version="1.0" encoding="UTF-8"?>
<svg version="1.1" xmlns="http://www.w3.org/2000/svg" width="900" height="900">
<path d="M0 0 C1.74313477 0.24145752 1.74313477 0.24145752 3.52148438 0.48779297 C89.62154594 12.47684649 172.0178833 50.2570444 237 108 C237.82886719 108.72960937 238.65773438 109.45921875 239.51171875 110.2109375 C242.03026858 112.45057354 244.51888834 114.71892138 247 117 C247.60634277 117.5559082 248.21268555 118.11181641 248.83740234 118.68457031 C256.13222302 125.38810986 263.35625039 132.06069092 269.86328125 139.546875 C271.89026699 141.87401768 273.9715409 144.14218882 276.07373047 146.40136719 C281.64263076 152.39923104 286.94410125 158.56313274 292 165 C292.56315918 165.71236816 293.12631836 166.42473633 293.70654297 167.15869141 C343.93682785 230.95909733 375.67333862 306.75850642 387 387 C387.24556641 388.61044189 387.24556641 388.61044189 387.49609375 390.25341797 C393.08035008 427.82600217 392.69469918 469.47266755 387 507 C386.83902832 508.16208984 386.67805664 509.32417969 386.51220703 510.52148438 C374.52315351 596.62154594 336.7429556 679.0178833 279 744 C278.27039063 744.82886719 277.54078125 745.65773438 276.7890625 746.51171875 C274.54942646 749.03026858 272.28107862 751.51888834 270 754 C269.4440918 754.60634277 268.88818359 755.21268555 268.31542969 755.83740234 C261.61189014 763.13222302 254.93930908 770.35625039 247.453125 776.86328125 C245.12598232 778.89026699 242.85781118 780.9715409 240.59863281 783.07373047 C234.60076896 788.64263076 228.43686726 793.94410125 222 799 C221.28763184 799.56315918 220.57526367 800.12631836 219.84130859 800.70654297 C156.04090267 850.93682785 80.24149358 882.67333862 0 894 C-1.61044189 894.24556641 -1.61044189 894.24556641 -3.25341797 894.49609375 C-40.82600217 900.08035008 -82.47266755 899.69469918 -120 894 C-121.16208984 893.83902832 -122.32417969 893.67805664 -123.52148438 893.51220703 C-209.62154594 881.52315351 -292.0178833 843.7429556 -357 786 C-357.82886719 785.27039063 -358.65773438 784.54078125 -359.51171875 783.7890625 C-362.03026858 781.54942646 -364.51888834 779.28107862 -367 777 C-367.60634277 776.4440918 -368.21268555 775.88818359 -368.83740234 775.31542969 C-376.13222302 768.61189014 -383.35625039 761.93930908 -389.86328125 754.453125 C-391.89026699 752.12598232 -393.9715409 749.85781118 -396.07373047 747.59863281 C-401.64263076 741.60076896 -406.94410125 735.43686726 -412 729 C-412.56315918 728.28763184 -413.12631836 727.57526367 -413.70654297 726.84130859 C-463.93682785 663.04090267 -495.67333862 587.24149358 -507 507 C-507.16371094 505.92637207 -507.32742188 504.85274414 -507.49609375 503.74658203 C-513.08035008 466.17399783 -512.69469918 424.52733245 -507 387 C-506.83902832 385.83791016 -506.67805664 384.67582031 -506.51220703 383.47851562 C-494.52315351 297.37845406 -456.7429556 214.9821167 -399 150 C-398.27039063 149.17113281 -397.54078125 148.34226563 -396.7890625 147.48828125 C-394.54942646 144.96973142 -392.28107862 142.48111166 -390 140 C-389.4440918 139.39365723 -388.88818359 138.78731445 -388.31542969 138.16259766 C-381.61189014 130.86777698 -374.93930908 123.64374961 -367.453125 117.13671875 C-365.12598232 115.10973301 -362.85781118 113.0284591 -360.59863281 110.92626953 C-354.60076896 105.35736924 -348.43686726 100.05589875 -342 95 C-341.28763184 94.43684082 -340.57526367 93.87368164 -339.84130859 93.29345703 C-276.04090267 43.06317215 -200.24149358 11.32666138 -120 0 C-118.92637207 -0.16371094 -117.85274414 -0.32742188 -116.74658203 -0.49609375 C-79.17399783 -6.08035008 -37.52733245 -5.69469918 0 0 Z " fill="#FE3636" transform="translate(510,3)"/>
<path d="M0 0 C35.97 0 71.94 0 109 0 C109.20151517 38.26549193 109.20151517 38.26549193 109.24414062 54.83007812 C109.27332651 66.07865417 109.30694664 77.32703494 109.37719727 88.57543945 C109.65360822 133.76030267 108.72242436 178.48904572 104.92599201 223.52606106 C103.78879771 237.12898743 102.99865968 250.74562039 102.25 264.375 C102.12797572 266.56609093 102.00586308 268.75717694 101.88365173 270.94825745 C101.73175346 273.67980673 101.58079814 276.4113841 101.43343258 279.1431818 C101.18185709 283.77438943 100.77779876 288.36158078 100.21902466 292.96606445 C99.83739098 296.51004125 99.75243729 300.06451285 99.625 303.625 C99.19595794 313.9592758 98.38646303 324.25416451 97.5625 334.5625 C96.36944865 349.49561072 95.40053058 364.42718667 94.64672852 379.38891602 C94.05611188 390.97294942 94.05611188 390.97294942 93.5078125 395.3828125 C92.58375438 402.87676363 92.38700516 410.46246976 92 418 C91.0668456 436.17463993 91.0668456 436.17463993 90.21875 442.97265625 C89.76980083 447.13345301 89.66427738 451.32005333 89.5 455.5 C89.27305803 461.27441247 88.92126352 466.97074783 88.23632812 472.70898438 C87.7976972 476.96116685 87.66781536 481.23003137 87.5 485.5 C87.11186945 495.37576625 87.11186945 495.37576625 86.53515625 500.08984375 C85.66460005 507.3821652 85.36317324 514.73393961 84.9375 522.0625 C84.4734375 529.9515625 84.4734375 529.9515625 84 538 C65.19 538 46.38 538 27 538 C25.74598924 525.45989236 24.51329084 512.934375 23.5 500.375 C23.4032901 499.18565857 23.4032901 499.18565857 23.30462646 497.97229004 C22.38301505 486.58217603 21.63364084 475.19346706 21.01901245 463.78222656 C20.13619087 447.62700407 18.82950139 431.50350742 17.5625 415.375 C15.93749242 394.68919249 14.4341143 374.00495323 13.19851685 353.29144287 C12.44459028 340.67932664 11.56922153 328.08928212 10.5 315.5 C9.21366706 300.31383401 8.20234423 285.12155562 7.3425293 269.90527344 C6.70772069 258.94204052 5.94029959 248.01056937 4.88630676 237.07905579 C4.13788951 229.30768014 3.45850717 221.53051593 2.8125 213.75 C2.74400471 212.92511204 2.67550941 212.10022408 2.60493851 211.25033951 C-1.65505337 158.98767016 -0.49316122 106.39799516 -0.30541992 54.00878906 C-0.30245238 53.17814107 -0.29948484 52.34749309 -0.29642737 51.49167395 C-0.23264461 34.32752733 -0.11009083 17.16397516 0 0 Z " fill="#FFFEFE" transform="translate(397,76)"/>
<path d="M0 0 C33.33 0 66.66 0 101 0 C101 33 101 66 101 100 C67.67 100 34.34 100 0 100 C0 67 0 34 0 0 Z " fill="#FFFEFE" transform="translate(401,692)"/>
</svg>
