<?xml version="1.0" encoding="UTF-8"?>
<svg version="1.1" xmlns="http://www.w3.org/2000/svg" width="1080" height="1080">
<path d="M0 0 C1.37009717 -0.00702064 2.74019401 -0.01410747 4.11029053 -0.02125549 C8.46285473 -0.04065306 12.81536568 -0.04568919 17.16796875 -0.046875 C17.90902233 -0.04731686 18.65007591 -0.04775871 19.41358566 -0.04821396 C41.21256388 -0.05503364 62.71814779 0.20482739 84.35546875 3.203125 C85.65291016 3.36941406 86.95035156 3.53570312 88.28710938 3.70703125 C139.51515699 10.2732876 190.16119708 24.18857295 237.35546875 45.203125 C238.46341797 45.69538574 239.57136719 46.18764648 240.71289062 46.69482422 C286.06800121 66.98826396 328.38957078 93.07813441 366.35546875 125.203125 C366.88124512 125.64543457 367.40702148 126.08774414 367.94873047 126.54345703 C369.71318874 128.02966028 371.47265621 129.52156895 373.23046875 131.015625 C373.74730225 131.45293945 374.26413574 131.89025391 374.79663086 132.34082031 C385.47408911 141.48508021 395.56948995 151.25045634 405.48730469 161.20458984 C407.24690355 162.96961044 409.01187272 164.72913633 410.77734375 166.48828125 C416.51621753 172.22348329 422.12994186 177.98913117 427.35546875 184.203125 C428.23208839 185.21309496 429.10964243 186.22225491 429.98828125 187.23046875 C437.46478401 195.96086774 444.45670264 205.0120161 451.35546875 214.203125 C451.92700684 214.95899902 452.49854492 215.71487305 453.08740234 216.49365234 C473.40498397 243.39274603 490.22694069 272.10959528 505.35546875 302.203125 C505.81018555 303.09789551 506.26490234 303.99266602 506.73339844 304.91455078 C539.2529714 369.19132394 558.29950464 445.32966571 558.55859375 517.41015625 C558.56911522 519.37809395 558.56911522 519.37809395 558.57984924 521.38578796 C558.59924225 525.59573862 558.60428308 529.80563417 558.60546875 534.015625 C558.60591061 534.73277679 558.60635246 535.44992859 558.60680771 536.18881226 C558.61374908 557.66789951 558.34461561 578.8888312 555.35546875 600.203125 C555.17640822 601.52680823 554.99770831 602.85054027 554.81933594 604.17431641 C546.56718735 664.64617672 528.55166964 721.6609547 501.35546875 776.203125 C500.62674561 777.66661377 500.62674561 777.66661377 499.88330078 779.15966797 C482.38577202 814.05534094 460.3021015 846.23005234 435.35546875 876.203125 C434.43357957 877.32160289 433.51170404 878.44009204 432.58984375 879.55859375 C421.61128703 892.79537887 409.61485724 905.03470702 397.48046875 917.203125 C396.94049255 917.74578003 396.40051636 918.28843506 395.84417725 918.84753418 C389.86197328 924.85224045 383.82626165 930.7200743 377.35546875 936.203125 C376.27201695 937.15202631 375.18993663 938.10249632 374.109375 939.0546875 C365.8269323 946.27831715 357.24262124 953.02156385 348.45507812 959.61816406 C346.46727547 961.11872393 344.4953047 962.63761818 342.52734375 964.1640625 C321.9104586 980.05452606 299.49208533 993.504561 276.66162109 1005.94580078 C275.15219288 1006.76874756 273.64462368 1007.59511557 272.13916016 1008.42529297 C201.98959417 1047.02388982 117.00423234 1070.12760899 36.7109375 1070.40625 C35.34084033 1070.41327064 33.97074349 1070.42035747 32.60064697 1070.42750549 C28.24808277 1070.44690306 23.89557182 1070.45193919 19.54296875 1070.453125 C18.43138838 1070.45378778 18.43138838 1070.45378778 17.29735184 1070.45446396 C-4.50162638 1070.46128364 -26.00721029 1070.20142261 -47.64453125 1067.203125 C-49.59069336 1066.95369141 -49.59069336 1066.95369141 -51.57617188 1066.69921875 C-102.80421949 1060.1329624 -153.45025958 1046.21767705 -200.64453125 1025.203125 C-202.30645508 1024.46473389 -202.30645508 1024.46473389 -204.00195312 1023.71142578 C-249.35706371 1003.41798604 -291.67863328 977.32811559 -329.64453125 945.203125 C-330.17030762 944.76081543 -330.69608398 944.31850586 -331.23779297 943.86279297 C-333.00225124 942.37658972 -334.76171871 940.88468105 -336.51953125 939.390625 C-337.03636475 938.95331055 -337.55319824 938.51599609 -338.08569336 938.06542969 C-348.60907849 929.05311922 -358.57494974 919.44041649 -368.34912109 909.62890625 C-370.03629083 907.93631153 -371.72883321 906.24921903 -373.421875 904.5625 C-379.04351795 898.94460379 -384.51031694 893.27612791 -389.64453125 887.203125 C-390.5933198 886.11957446 -391.54379213 885.03749555 -392.49609375 883.95703125 C-399.7197234 875.67458855 -406.4629701 867.09027749 -413.05957031 858.30273438 C-414.56013018 856.31493172 -416.07902443 854.34296095 -417.60546875 852.375 C-437.70965598 826.29717041 -453.88740368 797.55786826 -468.64453125 768.203125 C-469.32660645 766.86096924 -469.32660645 766.86096924 -470.02246094 765.49169922 C-502.5420339 701.21492606 -521.58856714 625.07658429 -521.84765625 552.99609375 C-521.85467056 551.68413528 -521.86168488 550.37217682 -521.86891174 549.02046204 C-521.88830475 544.81051138 -521.89334558 540.60061583 -521.89453125 536.390625 C-521.89497311 535.67347321 -521.89541496 534.95632141 -521.89587021 534.21743774 C-521.90281158 512.73835049 -521.63367811 491.5174188 -518.64453125 470.203125 C-518.46547072 468.87944177 -518.28677081 467.55570973 -518.10839844 466.23193359 C-509.85624985 405.76007328 -491.84073214 348.7452953 -464.64453125 294.203125 C-464.15871582 293.22746582 -463.67290039 292.25180664 -463.17236328 291.24658203 C-445.67483452 256.35090906 -423.591164 224.17619766 -398.64453125 194.203125 C-397.72264207 193.08464711 -396.80076654 191.96615796 -395.87890625 190.84765625 C-384.90034953 177.61087113 -372.90391974 165.37154298 -360.76953125 153.203125 C-360.22955505 152.66046997 -359.68957886 152.11781494 -359.13323975 151.55871582 C-353.15103578 145.55400955 -347.11532415 139.6861757 -340.64453125 134.203125 C-339.56107945 133.25422369 -338.47899913 132.30375368 -337.3984375 131.3515625 C-329.1159948 124.12793285 -320.53168374 117.38468615 -311.74414062 110.78808594 C-309.75633797 109.28752607 -307.7843672 107.76863182 -305.81640625 106.2421875 C-285.1995211 90.35172394 -262.78114783 76.901689 -239.95068359 64.46044922 C-238.44125538 63.63750244 -236.93368618 62.81113443 -235.42822266 61.98095703 C-165.27865667 23.38236018 -80.29329484 0.27864101 0 0 Z " fill="#FE3636" transform="translate(521.64453125,-0.203125)"/>
<path d="M0 0 C76.56 0 153.12 0 232 0 C232.020625 23.079375 232.04125 46.15875 232.0625 69.9375 C232.071604 77.23738037 232.08070801 84.53726074 232.09008789 92.05834961 C232.09460449 100.94055176 232.09460449 100.94055176 232.09544373 105.09254456 C232.09637915 108.00584162 232.10014156 110.91912064 232.10557556 113.83241272 C232.11240308 117.54157667 232.11449705 121.25071416 232.11307228 124.95988381 C232.11351182 126.9727479 232.11889157 128.98560902 232.12442875 130.99846554 C232.12305125 132.17535726 232.12167376 133.35224897 232.12025452 134.56480408 C232.12163721 136.1120336 232.12163721 136.1120336 232.12304783 137.69052029 C232 140 232 140 231 141 C230.79111292 142.99603206 230.63224523 144.99742941 230.5 147 C230.11111111 152.88888889 230.11111111 152.88888889 229 154 C228.79162581 155.82906235 228.63250341 157.66388134 228.5 159.5 C228.11111111 164.88888889 228.11111111 164.88888889 227 166 C226.67988878 167.56084658 226.41233234 169.13254731 226.16796875 170.70703125 C226.01126709 171.67987061 225.85456543 172.65270996 225.69311523 173.6550293 C225.52626221 174.69699463 225.35940918 175.73895996 225.1875 176.8125 C223.97978692 184.11375022 222.55978157 190.88270559 219.9453125 197.8203125 C217.90391648 204.68682637 217.22872026 211.92174434 216.32543945 219.01391602 C216 221 216 221 215 224 C214.80066671 225.44378208 214.63760232 226.89278272 214.5 228.34375 C214.4175 229.17777344 214.335 230.01179687 214.25 230.87109375 C214.1675 231.73863281 214.085 232.60617187 214 233.5 C213.83652361 235.21905637 213.66998332 236.93782485 213.5 238.65625 C213.4278125 239.41744141 213.355625 240.17863281 213.28125 240.96289062 C213 243 213 243 212 246 C211.85810285 248.01120628 211.75009956 250.02486397 211.66015625 252.0390625 C211.07139687 260.99143118 209.27709575 269.60864307 207.4375 278.375 C207.10399881 279.9972277 206.77131165 281.61962297 206.43945312 283.2421875 C205.63564221 287.16344707 204.82095881 291.08229627 204 295 C203.34 295 202.68 295 202 295 C201.91959473 295.70495605 201.83918945 296.40991211 201.75634766 297.13623047 C201.38354108 300.38299819 201.00430952 303.62898583 200.625 306.875 C200.49867188 307.98359375 200.37234375 309.0921875 200.2421875 310.234375 C198.0390625 328.9609375 198.0390625 328.9609375 196 331 C195.54769576 334.831283 195.18253495 338.66187125 194.83789062 342.50390625 C194.36510396 347.41627502 193.58630533 352.09383136 192.45288086 356.89501953 C191.77316553 360.05432171 191.52661183 363.22024099 191.25 366.4375 C190.20240547 377.28509478 188.12538999 387.97645819 186.12011719 398.67944336 C184.55971489 407.11498852 183.43925487 415.41456387 183 424 C182.34 424 181.68 424 181 424 C181 428.62 181 433.24 181 438 C180.34 438 179.68 438 179 438 C178.67 440.97 178.34 443.94 178 447 C137.74 447 97.48 447 56 447 C52.84631148 430.18032787 52.84631148 430.18032787 51.5390625 422.08203125 C50.68126571 417.17767135 49.62973663 412.31293022 48.5859375 407.4453125 C48.03653383 404.21481889 47.89007097 401.26789024 48 398 C47.34 398 46.68 398 46 398 C45.91435791 397.37432129 45.82871582 396.74864258 45.74047852 396.10400391 C45.35146482 393.27715353 44.9570505 390.45108268 44.5625 387.625 C44.42779297 386.64015625 44.29308594 385.6553125 44.15429688 384.640625 C44.02216797 383.69960938 43.89003906 382.75859375 43.75390625 381.7890625 C43.63345947 380.91975098 43.5130127 380.05043945 43.38891602 379.15478516 C43.09700837 376.95965439 43.09700837 376.95965439 42 375 C41.72085777 373.05605208 41.48899265 371.10521264 41.28125 369.15234375 C41.15363281 367.99025391 41.02601563 366.82816406 40.89453125 365.63085938 C40.63109785 363.16475758 40.3680783 360.69861154 40.10546875 358.23242188 C39.97785156 357.07162109 39.85023438 355.91082031 39.71875 354.71484375 C39.54762695 353.10790649 39.54762695 353.10790649 39.37304688 351.46850586 C39.25899941 349.06116341 39.25899941 349.06116341 38 348 C37.47206541 345.45988043 36.99860625 342.93123651 36.5625 340.375 C36.43053223 339.61751465 36.29856445 338.8600293 36.16259766 338.07958984 C35.0775134 331.73164868 34.2098492 325.36841365 33.4296875 318.9765625 C33.08320255 315.95387524 33.08320255 315.95387524 32 313 C31.73383035 310.23268058 31.55631192 307.46572899 31.37890625 304.69140625 C30.99408129 301.95795883 30.26245078 300.42082856 29 298 C26.08879319 290.10121095 26.25350919 281.66938696 25.7890625 273.34375 C25.71429688 272.16039062 25.63953125 270.97703125 25.5625 269.7578125 C25.50191406 268.6764502 25.44132812 267.59508789 25.37890625 266.48095703 C25.25386719 265.66224121 25.12882812 264.84352539 25 264 C24.34 263.67 23.68 263.34 23 263 C21.13288554 259.27246325 20.67878209 255.94509747 20.4375 251.8125 C20.28867058 247.75445989 20.28867058 247.75445989 19 244 C18.68672976 241.18056784 18.48970036 238.36021918 18.28125 235.53125 C18.14867388 233.00925996 18.14867388 233.00925996 17 231 C16.84265104 229.21088409 16.7238433 227.41829988 16.625 225.625 C16.21697474 220.19761643 15.16044678 215.24302963 13.76171875 209.99609375 C11.68639413 201.83315026 10.77895666 193.70798115 10.5390625 185.30078125 C10.0476686 182.29188381 9.37379976 180.50751548 8.06640625 177.81640625 C5.58823228 172.54446274 4.94130166 167.37294157 4.3125 161.625 C4.08173243 159.67941268 3.84875939 157.73408532 3.61328125 155.7890625 C3.51829346 154.94037598 3.42330566 154.09168945 3.32543945 153.21728516 C3.04157663 150.83288026 3.04157663 150.83288026 2 148 C1.93062938 145.77181559 1.91542916 143.54165476 1.9375 141.3125 C1.95103516 139.54326172 1.95103516 139.54326172 1.96484375 137.73828125 C1.97644531 136.83464844 1.98804688 135.93101562 2 135 C1.34 135 0.68 135 0 135 C0 90.45 0 45.9 0 0 Z " fill="#FFFEFE" transform="translate(426,248)"/>
<path d="M0 0 C70.95 0 141.9 0 215 0 C215 27.39 215 54.78 215 83 C144.05 83 73.1 83 0 83 C0 55.61 0 28.22 0 0 Z " fill="#FFFDFD" transform="translate(434,760)"/>
<path d="M0 0 C0.99 0 1.98 0 3 0 C3.02332809 18.23645998 3.04097873 36.47291611 3.05181217 54.70938778 C3.05697532 63.17629939 3.06401838 71.64320175 3.07543945 80.11010742 C3.08538572 87.48717094 3.09185329 94.86422775 3.09408849 102.24129778 C3.0953957 106.14982053 3.09848217 110.05832412 3.10573006 113.96684074 C3.11248937 117.64146442 3.11461715 121.31606093 3.11310768 124.99069023 C3.11351638 126.99079611 3.11891204 128.99089898 3.12442017 130.99099731 C3.1230455 132.17035355 3.12167084 133.34970978 3.12025452 134.56480408 C3.12117631 135.59629043 3.1220981 136.62777678 3.12304783 137.69052029 C3 140 3 140 2 141 C1.79111292 142.99603206 1.63224523 144.99742941 1.5 147 C1.11111111 152.88888889 1.11111111 152.88888889 0 154 C-0.20837419 155.82906235 -0.36749659 157.66388134 -0.5 159.5 C-0.88888889 164.88888889 -0.88888889 164.88888889 -2 166 C-2.3435227 167.6780122 -2.63467591 169.36682346 -2.90234375 171.05859375 C-3.15467773 172.59676758 -3.15467773 172.59676758 -3.41210938 174.16601562 C-3.76166039 176.34258796 -4.10802831 178.51967394 -4.45117188 180.69726562 C-4.62068359 181.72400391 -4.79019531 182.75074219 -4.96484375 183.80859375 C-5.1155835 184.75532959 -5.26632324 185.70206543 -5.42163086 186.67749023 C-6 189 -6 189 -8 191 C-8.27441289 183.59085208 -6.93132008 177.03406025 -5.26953125 169.8359375 C-0.64157991 148.64602832 -0.6758856 126.99817486 -0.59528303 105.40751195 C-0.57936169 101.68532244 -0.5526688 97.9632082 -0.5272522 94.24107361 C-0.48096634 87.23304863 -0.44398408 80.22500867 -0.41057932 73.21691173 C-0.37199695 65.22131999 -0.32268508 57.22580477 -0.27259517 49.23027813 C-0.1700245 32.82024086 -0.0805275 16.41016059 0 0 Z " fill="#FFDCDC" transform="translate(655,248)"/>
<path d="M0 0 C0.33 0 0.66 0 1 0 C1 44.55 1 89.1 1 135 C1.66 135 2.32 135 3 135 C3.03738281 135.76441406 3.07476562 136.52882813 3.11328125 137.31640625 C3.57797846 144.8882373 4.7240965 152.07527942 6.31640625 159.48828125 C6.90046412 162.48866997 7.24403958 165.33153736 7.4375 168.375 C7.69889664 171.78427957 8.39952279 174.05084933 10 177.0625 C13.35435853 183.77121705 12.83132047 191.65400633 13 199 C12.34 198.67 11.68 198.34 11 198 C11 195.36 11 192.72 11 190 C10.34 190 9.68 190 9 190 C8.86722656 189.15695312 8.73445313 188.31390625 8.59765625 187.4453125 C8.42105469 186.34960938 8.24445313 185.25390625 8.0625 184.125 C7.88847656 183.03445313 7.71445312 181.94390625 7.53515625 180.8203125 C7.14448841 178.06178454 7.14448841 178.06178454 6 176 C5.92934383 173.95944995 5.91578024 171.91665743 5.9375 169.875 C5.94652344 168.77929688 5.95554687 167.68359375 5.96484375 166.5546875 C5.97644531 165.71164062 5.98804688 164.86859375 6 164 C5.34 164 4.68 164 4 164 C3.93941406 163.37351562 3.87882812 162.74703125 3.81640625 162.1015625 C3.73261719 161.28429687 3.64882813 160.46703125 3.5625 159.625 C3.48128906 158.81289063 3.40007812 158.00078125 3.31640625 157.1640625 C3.10909886 154.95727195 3.10909886 154.95727195 2 153 C1.68879716 150.44122107 1.49035334 147.88148388 1.28125 145.3125 C1.12863953 142.97731545 1.12863953 142.97731545 0 141 C-0.09361491 139.13744885 -0.12191073 137.27148724 -0.12025452 135.40658569 C-0.12162918 134.21744064 -0.12300385 133.02829559 -0.12442017 131.80311584 C-0.12082489 130.49185226 -0.11722961 129.18058868 -0.11352539 127.82958984 C-0.11324343 126.44014996 -0.11340142 125.05070993 -0.1139679 123.66127014 C-0.11425554 119.88257049 -0.10836413 116.10390239 -0.10139394 112.32521009 C-0.09515492 108.37872444 -0.09455617 104.43223811 -0.09336853 100.48574829 C-0.09025684 93.0094972 -0.08204562 85.53326068 -0.07201904 78.05701602 C-0.06085289 69.54685544 -0.05534619 61.03669419 -0.05032361 52.52652812 C-0.03986288 35.01767698 -0.02226655 17.50884003 0 0 Z " fill="#FF8E8E" transform="translate(425,248)"/>
<path d="M0 0 C0.33 0 0.66 0 1 0 C1.02332809 18.23645998 1.04097873 36.47291611 1.05181217 54.70938778 C1.05697532 63.17629939 1.06401838 71.64320175 1.07543945 80.11010742 C1.08538572 87.48717094 1.09185329 94.86422775 1.09408849 102.24129778 C1.0953957 106.14982053 1.09848217 110.05832412 1.10573006 113.96684074 C1.11248937 117.64146442 1.11461715 121.31606093 1.11310768 124.99069023 C1.11351638 126.99079611 1.11891204 128.99089898 1.12442017 130.99099731 C1.1230455 132.17035355 1.12167084 133.34970978 1.12025452 134.56480408 C1.12117631 135.59629043 1.1220981 136.62777678 1.12304783 137.69052029 C1 140 1 140 0 141 C-0.20888708 142.99603206 -0.36775477 144.99742941 -0.5 147 C-0.88888889 152.88888889 -0.88888889 152.88888889 -2 154 C-2.20837419 155.82906235 -2.36749659 157.66388134 -2.5 159.5 C-2.88888889 164.88888889 -2.88888889 164.88888889 -4 166 C-4.3435227 167.6780122 -4.63467591 169.36682346 -4.90234375 171.05859375 C-5.15467773 172.59676758 -5.15467773 172.59676758 -5.41210938 174.16601562 C-5.76166039 176.34258796 -6.10802831 178.51967394 -6.45117188 180.69726562 C-6.62068359 181.72400391 -6.79019531 182.75074219 -6.96484375 183.80859375 C-7.1155835 184.75532959 -7.26632324 185.70206543 -7.42163086 186.67749023 C-8 189 -8 189 -10 191 C-10.23413613 184.67832459 -9.359184 179.15776652 -8 173 C-5.56827539 161.50872142 -5.56827539 161.50872142 -4.2109375 149.85546875 C-4 148 -4 148 -3 146 C-1.17906681 137.11003858 -0.69748504 128.36475756 -0.68115234 119.31518555 C-0.67110672 118.01606232 -0.6610611 116.71693909 -0.65071106 115.37844849 C-0.62372265 111.86074757 -0.60835574 108.34308595 -0.59528303 104.82530951 C-0.57951398 101.1324213 -0.55276874 97.43961181 -0.5272522 93.7467804 C-0.48070573 86.77383932 -0.4438459 79.80088303 -0.41057932 72.82786733 C-0.372186 64.8808724 -0.32282172 56.93395701 -0.27259517 48.98702943 C-0.16963484 32.65807699 -0.08025925 16.32908015 0 0 Z " fill="#FF9797" transform="translate(657,248)"/>
<path d="M0 0 C0.66 0 1.32 0 2 0 C3.5476555 3.09531099 3.44409451 6.3666763 3.71875 9.78515625 C3.7665741 11.97070668 3.7665741 11.97070668 5 13 C5.07244053 15.01964199 5.08377188 17.04167124 5.0625 19.0625 C5.05347656 20.16722656 5.04445313 21.27195312 5.03515625 22.41015625 C5.02355469 23.26480469 5.01195312 24.11945312 5 25 C5.66 25 6.32 25 7 25 C7 28.3 7 31.6 7 35 C7.66 35 8.32 35 9 35 C9.06058594 35.99902344 9.12117188 36.99804688 9.18359375 38.02734375 C9.26738281 39.31769531 9.35117187 40.60804688 9.4375 41.9375 C9.51871094 43.22527344 9.59992188 44.51304687 9.68359375 45.83984375 C9.64919188 48.86023957 9.64919188 48.86023957 11 50 C11.32237212 52.57897694 11.51267304 55.15931821 11.71875 57.75 C11.76200665 59.96665352 11.76200665 59.96665352 13 61 C13.32237212 63.57897694 13.51267304 66.15931821 13.71875 68.75 C13.76200665 70.96665352 13.76200665 70.96665352 15 72 C15.32351301 74.83972535 15.5130429 77.68073737 15.71875 80.53125 C15.73385265 82.9413605 15.73385265 82.9413605 17 84 C17.07205511 85.68608966 17.08386068 87.37500659 17.0625 89.0625 C17.05347656 89.98160156 17.04445313 90.90070313 17.03515625 91.84765625 C17.02355469 92.55792969 17.01195312 93.26820313 17 94 C17.66 94 18.32 94 19 94 C20.17469444 96.34938888 20.20034889 97.95073205 20.31640625 100.5703125 C20.35830078 101.46621094 20.40019531 102.36210938 20.44335938 103.28515625 C20.48267578 104.22230469 20.52199219 105.15945313 20.5625 106.125 C20.60568359 107.06988281 20.64886719 108.01476562 20.69335938 108.98828125 C20.79959072 111.32537092 20.90163176 113.6625683 21 116 C20.67 116 20.34 116 20 116 C18.80911014 110.61972975 17.7080481 105.54708616 18 100 C17.34 100 16.68 100 16 100 C15.91435791 99.37432129 15.82871582 98.74864258 15.74047852 98.10400391 C15.35146482 95.27715353 14.9570505 92.45108268 14.5625 89.625 C14.42779297 88.64015625 14.29308594 87.6553125 14.15429688 86.640625 C14.02216797 85.69960938 13.89003906 84.75859375 13.75390625 83.7890625 C13.57323608 82.48509521 13.57323608 82.48509521 13.38891602 81.15478516 C13.09700837 78.95965439 13.09700837 78.95965439 12 77 C11.72085777 75.05605208 11.48899265 73.10521264 11.28125 71.15234375 C11.15363281 69.99025391 11.02601563 68.82816406 10.89453125 67.63085938 C10.63109785 65.16475758 10.3680783 62.69861154 10.10546875 60.23242188 C9.91404297 58.4912207 9.91404297 58.4912207 9.71875 56.71484375 C9.60466797 55.64355225 9.49058594 54.57226074 9.37304688 53.46850586 C9.25899941 51.06116341 9.25899941 51.06116341 8 50 C7.47206541 47.45988043 6.99860625 44.93123651 6.5625 42.375 C6.43053223 41.61751465 6.29856445 40.8600293 6.16259766 40.07958984 C5.0775134 33.73164868 4.2098492 27.36841365 3.4296875 20.9765625 C3.08320255 17.95387524 3.08320255 17.95387524 2 15 C1.80112075 13.19075124 1.63790399 11.37741502 1.5 9.5625 C1.24838307 6.26002785 0.90492699 3.18986763 0 0 Z " fill="#FFC8C8" transform="translate(456,546)"/>
<path d="M0 0 C0.33 0 0.66 0 1 0 C1.00423194 0.6845246 1.00846388 1.36904921 1.01282406 2.07431698 C1.11599054 18.7066944 1.22460698 35.3390263 1.33933926 51.97132778 C1.39468986 60.01448022 1.44817481 68.0576371 1.49731445 76.10083008 C1.54013385 83.10875744 1.58640608 90.11665189 1.63687855 97.12452847 C1.66349765 100.83741259 1.68835108 104.5502901 1.70907402 108.2632122 C1.73223478 112.40135437 1.76310204 116.53940373 1.79467773 120.67749023 C1.8004332 121.91754318 1.80618866 123.15759613 1.81211853 124.43522644 C1.82190735 125.55568359 1.83169617 126.67614075 1.84178162 127.83055115 C1.84823417 128.81041709 1.85468672 129.79028303 1.8613348 130.79984188 C1.75502016 132.97542994 1.75502016 132.97542994 3 134 C3.32351301 136.83972535 3.5130429 139.68073737 3.71875 142.53125 C3.73385265 144.9413605 3.73385265 144.9413605 5 146 C5.07226502 147.85287502 5.0838122 149.70833878 5.0625 151.5625 C5.05347656 152.57441406 5.04445313 153.58632813 5.03515625 154.62890625 C5.01775391 155.80259766 5.01775391 155.80259766 5 157 C5.66 157 6.32 157 7 157 C7.33 162.94 7.66 168.88 8 175 C5.55881016 172.55881016 5.5948675 171.46851801 5.18359375 168.09765625 C5.05919922 167.12505859 4.93480469 166.15246094 4.80664062 165.15039062 C4.68482422 164.13138672 4.56300781 163.11238281 4.4375 162.0625 C4.18871372 160.05307234 3.93751694 158.04394125 3.68359375 156.03515625 C3.57587646 155.1419165 3.46815918 154.24867676 3.35717773 153.32836914 C3.04423592 150.85150168 3.04423592 150.85150168 2 148 C1.93062938 145.77181559 1.91542916 143.54165476 1.9375 141.3125 C1.95103516 139.54326172 1.95103516 139.54326172 1.96484375 137.73828125 C1.97644531 136.83464844 1.98804688 135.93101562 2 135 C1.34 135 0.68 135 0 135 C0 90.45 0 45.9 0 0 Z " fill="#FFDEDE" transform="translate(426,248)"/>
<path d="M0 0 C1.20183288 3.64137424 0.94178515 6.83213998 0.625 10.625 C0.53476562 11.77226563 0.44453125 12.91953125 0.3515625 14.1015625 C0 17 0 17 -1 19 C-1.15734896 20.78911591 -1.2761567 22.58170012 -1.375 24.375 C-1.69752193 28.73945 -2.34281847 32.71884306 -3.5 36.9375 C-5.00347727 42.45511563 -5.50500743 47.77907778 -5.7890625 53.48046875 C-6 56 -6 56 -7 57 C-7.20839015 58.64107242 -7.36751725 60.28856293 -7.5 61.9375 C-7.89022298 66.78044597 -7.89022298 66.78044597 -9 69 C-9.2724167 71.55985218 -9.44564981 74.11929936 -9.62109375 76.6875 C-10 79 -10 79 -12 81 C-11.65448487 71.26600487 -10.79628756 62.12734262 -8.6953125 52.6015625 C-7.784271 47.88257228 -7.4558868 43.20807032 -7.2109375 38.4140625 C-7 36 -7 36 -6 35 C-5.64327045 33.33176477 -5.34090409 31.6518293 -5.0625 29.96875 C-4.80339844 28.41027344 -4.80339844 28.41027344 -4.5390625 26.8203125 C-4.36117187 25.72460938 -4.18328125 24.62890625 -4 23.5 C-3.82210937 22.43523438 -3.64421875 21.37046875 -3.4609375 20.2734375 C-2.67028261 15.47050409 -1.93420693 10.68664257 -1.4375 5.84375 C-1 2 -1 2 0 0 Z " fill="#FF7878" transform="translate(628,543)"/>
<path d="M0 0 C0.33 0 0.66 0 1 0 C1.20496094 1.13179688 1.40992188 2.26359375 1.62109375 3.4296875 C1.89306972 4.91148761 2.16521387 6.39325685 2.4375 7.875 C2.57220703 8.62136719 2.70691406 9.36773437 2.84570312 10.13671875 C3.54536611 14.18533378 3.54536611 14.18533378 5 18 C5.31500605 21.08005912 5.51083648 24.16099912 5.71875 27.25 C5.83187492 29.95865993 5.83187492 29.95865993 7 32 C7.31327024 34.81943216 7.51029964 37.63978082 7.71875 40.46875 C7.85132612 42.99074004 7.85132612 42.99074004 9 45 C9.20565731 46.93375001 9.36603946 48.87246428 9.5 50.8125 C9.76533484 54.62668834 10.17161641 58.26537065 11 62 C11.99 62.33 12.98 62.66 14 63 C14.33 68.61 14.66 74.22 15 80 C14.34 80 13.68 80 13 80 C13 76.7 13 73.4 13 70 C12.01 69.67 11.02 69.34 10 69 C9.93941406 68.37351562 9.87882812 67.74703125 9.81640625 67.1015625 C9.73261719 66.28429687 9.64882813 65.46703125 9.5625 64.625 C9.48128906 63.81289063 9.40007812 63.00078125 9.31640625 62.1640625 C9.10909886 59.95727195 9.10909886 59.95727195 8 58 C7.68879716 55.44122107 7.49035334 52.88148388 7.28125 50.3125 C7.12863953 47.97731545 7.12863953 47.97731545 6 46 C5.81757369 44.1699456 5.67839945 42.33546882 5.5625 40.5 C5.38590394 31.17158825 5.38590394 31.17158825 2 23 C1.79016721 20.85795689 1.63176615 18.71075887 1.5 16.5625 C1.35852674 12.12215669 1.35852674 12.12215669 0 8 C-0.13415472 5.3276379 -0.04318541 2.67749512 0 0 Z " fill="#FF7B7B" transform="translate(438,449)"/>
<path d="M0 0 C1.20516918 3.8191981 0.47951266 6.43485589 -0.47045898 10.29394531 C-1.05464733 13.27925821 -1.21295263 16.1331801 -1.34765625 19.171875 C-1.93423687 28.07649463 -3.73271071 36.65537449 -5.5625 45.375 C-5.89600119 46.9972277 -6.22868835 48.61962297 -6.56054688 50.2421875 C-7.36435779 54.16344707 -8.17904119 58.08229627 -9 62 C-9.33 62 -9.66 62 -10 62 C-10 57.05 -10 52.1 -10 47 C-9.34 47 -8.68 47 -8 47 C-8 43.04 -8 39.08 -8 35 C-6.515 34.505 -6.515 34.505 -5 34 C-5.020625 32.741875 -5.04125 31.48375 -5.0625 30.1875 C-5.10886083 27.35948913 -4.91692961 25.75078884 -4 23 C-3.84739648 21.16875772 -3.7263963 19.33479015 -3.625 17.5 C-3.17101989 11.39731652 -1.82350075 5.82602756 0 0 Z " fill="#FFADAD" transform="translate(639,481)"/>
<path d="M0 0 C0.33 0 0.66 0 1 0 C2.98447811 7.20009366 3.88460082 14.36358461 4.6796875 21.77929688 C5.36664731 27.395974 6.65355119 31.73938005 9.11767578 36.81420898 C10.60255635 40.49271916 10.67429274 44.13604643 10.75 48.0625 C10.77964844 48.83271484 10.80929687 49.60292969 10.83984375 50.39648438 C10.90943276 52.26378944 10.95710427 54.13189112 11 56 C10.34 55.67 9.68 55.34 9 55 C9 52.36 9 49.72 9 47 C8.34 47 7.68 47 7 47 C6.86722656 46.15695312 6.73445313 45.31390625 6.59765625 44.4453125 C6.42105469 43.34960938 6.24445313 42.25390625 6.0625 41.125 C5.88847656 40.03445313 5.71445312 38.94390625 5.53515625 37.8203125 C5.14448841 35.06178454 5.14448841 35.06178454 4 33 C3.92934383 30.95944995 3.91578024 28.91665743 3.9375 26.875 C3.94652344 25.77929688 3.95554687 24.68359375 3.96484375 23.5546875 C3.97644531 22.71164062 3.98804688 21.86859375 4 21 C3.34 21 2.68 21 2 21 C1.93941406 20.37351562 1.87882812 19.74703125 1.81640625 19.1015625 C1.69072266 17.87566406 1.69072266 17.87566406 1.5625 16.625 C1.48128906 15.81289063 1.40007812 15.00078125 1.31640625 14.1640625 C1.10909886 11.95727195 1.10909886 11.95727195 0 10 C-0.06996014 8.29297265 -0.08440154 6.58331997 -0.0625 4.875 C-0.05347656 3.96492188 -0.04445313 3.05484375 -0.03515625 2.1171875 C-0.02355469 1.41851562 -0.01195312 0.71984375 0 0 Z " fill="#FF6464" transform="translate(427,391)"/>
<path d="M0 0 C3.89816015 5.84724023 4.29571019 11.87859761 4.75390625 18.7421875 C4.7578778 20.96665284 4.7578778 20.96665284 6 22 C6.07205511 23.68608966 6.08386068 25.37500659 6.0625 27.0625 C6.05347656 27.98160156 6.04445313 28.90070312 6.03515625 29.84765625 C6.02355469 30.55792969 6.01195312 31.26820313 6 32 C6.66 32 7.32 32 8 32 C9.17469444 34.34938888 9.20034889 35.95073205 9.31640625 38.5703125 C9.37924805 39.91416016 9.37924805 39.91416016 9.44335938 41.28515625 C9.48267578 42.22230469 9.52199219 43.15945313 9.5625 44.125 C9.60568359 45.06988281 9.64886719 46.01476562 9.69335938 46.98828125 C9.79959072 49.32537092 9.90163176 51.6625683 10 54 C9.67 54 9.34 54 9 54 C7.80911014 48.61972975 6.7080481 43.54708616 7 38 C6.34 38 5.68 38 5 38 C4.91435791 37.37432129 4.82871582 36.74864258 4.74047852 36.10400391 C4.35146482 33.27715353 3.9570505 30.45108268 3.5625 27.625 C3.42779297 26.64015625 3.29308594 25.6553125 3.15429688 24.640625 C3.02216797 23.69960938 2.89003906 22.75859375 2.75390625 21.7890625 C2.63345947 20.91975098 2.5130127 20.05043945 2.38891602 19.15478516 C2.09700837 16.95965439 2.09700837 16.95965439 1 15 C0.76827173 12.45384991 0.58105471 9.92603775 0.4375 7.375 C0.39431641 6.66859375 0.35113281 5.9621875 0.30664062 5.234375 C0.20055249 3.48981463 0.09977111 1.74493303 0 0 Z " fill="#FFAEAE" transform="translate(467,608)"/>
<path d="M0 0 C0.33 0 0.66 0 1 0 C1.042721 1.66611905 1.04063832 3.33382885 1 5 C0.67 5.33 0.34 5.66 0 6 C-0.20888708 7.99603206 -0.36775477 9.99742941 -0.5 12 C-0.88888889 17.88888889 -0.88888889 17.88888889 -2 19 C-2.20837419 20.82906235 -2.36749659 22.66388134 -2.5 24.5 C-2.88888889 29.88888889 -2.88888889 29.88888889 -4 31 C-4.3435227 32.6780122 -4.63467591 34.36682346 -4.90234375 36.05859375 C-5.15467773 37.59676758 -5.15467773 37.59676758 -5.41210938 39.16601562 C-5.76166039 41.34258796 -6.10802831 43.51967394 -6.45117188 45.69726562 C-6.70543945 47.23737305 -6.70543945 47.23737305 -6.96484375 48.80859375 C-7.1155835 49.75532959 -7.26632324 50.70206543 -7.42163086 51.67749023 C-8 54 -8 54 -10 56 C-10.23413613 49.67832459 -9.359184 44.15776652 -8 38 C-5.56827539 26.50872142 -5.56827539 26.50872142 -4.2109375 14.85546875 C-4 13 -4 13 -3 11 C-2.77532169 9.46331135 -2.59203195 7.92031946 -2.4375 6.375 C-2.35371094 5.55773437 -2.26992188 4.74046875 -2.18359375 3.8984375 C-2.12300781 3.27195312 -2.06242188 2.64546875 -2 2 C-1.34 2 -0.68 2 0 2 C0 1.34 0 0.68 0 0 Z " fill="#FF7B7B" transform="translate(657,383)"/>
<path d="M0 0 C0.66 0 1.32 0 2 0 C1.80664062 1.01835938 1.61328125 2.03671875 1.4140625 3.0859375 C-0.13270904 11.42475031 -1.36738249 19.71813049 -2.22558594 28.15527344 C-3.1026023 36.49966564 -4.53575089 44.74163504 -6 53 C-6.33 53 -6.66 53 -7 53 C-7.02685938 50.85423363 -7.04633088 48.70837355 -7.0625 46.5625 C-7.07410156 45.36753906 -7.08570313 44.17257812 -7.09765625 42.94140625 C-7 40 -7 40 -6 39 C-5.79068103 36.83703727 -5.63202931 34.6690529 -5.5 32.5 C-5.11111111 26.11111111 -5.11111111 26.11111111 -4 25 C-3.79162581 23.17093765 -3.63250341 21.33611866 -3.5 19.5 C-3.11111111 14.11111111 -3.11111111 14.11111111 -2 13 C-1.79103683 11.19188816 -1.63219639 9.37783968 -1.5 7.5625 C-1.10992366 2.21984733 -1.10992366 2.21984733 0 0 Z " fill="#FFDDDD" transform="translate(619,590)"/>
<path d="M0 0 C1.30062431 3.81516464 0.89369853 7.27561763 0.5625 11.25 C0.46066406 12.51328125 0.35882812 13.7765625 0.25390625 15.078125 C0.17011719 16.04234375 0.08632813 17.0065625 0 18 C-0.66 18 -1.32 18 -2 18 C-1.97679687 18.68707031 -1.95359375 19.37414062 -1.9296875 20.08203125 C-1.91164063 20.98308594 -1.89359375 21.88414062 -1.875 22.8125 C-1.85179687 23.70582031 -1.82859375 24.59914063 -1.8046875 25.51953125 C-2 28 -2 28 -4 31 C-4.38499891 32.65549531 -4.72793135 34.3222433 -5 36 C-5.33 36 -5.66 36 -6 36 C-6.1356616 30.46870671 -5.73303181 25.47389494 -4.625 20.0625 C-4.48852051 19.36809814 -4.35204102 18.67369629 -4.21142578 17.95825195 C-1.60695765 4.82087295 -1.60695765 4.82087295 0 0 Z " fill="#FF7F7F" transform="translate(646,444)"/>
<path d="M0 0 C0.99 0.33 1.98 0.66 3 1 C3 4.63 3 8.26 3 12 C3.66 12 4.32 12 5 12 C5.06058594 12.85464844 5.12117188 13.70929688 5.18359375 14.58984375 C5.26738281 15.69457031 5.35117187 16.79929687 5.4375 17.9375 C5.51871094 19.03964844 5.59992188 20.14179688 5.68359375 21.27734375 C5.70418084 23.91109903 5.70418084 23.91109903 7 25 C7.07226502 26.85287502 7.0838122 28.70833878 7.0625 30.5625 C7.05347656 31.57441406 7.04445313 32.58632813 7.03515625 33.62890625 C7.02355469 34.41136719 7.01195312 35.19382812 7 36 C6.5359375 35.0409375 6.5359375 35.0409375 6.0625 34.0625 C5.1654837 32.06389179 5.1654837 32.06389179 4 31 C3.7905639 29.02490127 3.63196178 27.04428318 3.5 25.0625 C3.32264916 20.87832585 3.32264916 20.87832585 2 17 C1.7946026 15.25412209 1.63409374 13.50279681 1.5 11.75 C1.17201088 7.78809962 0.73981826 3.91046794 0 0 Z " fill="#FFB4B4" transform="translate(443,475)"/>
<path d="M0 0 C1.23104155 3.68400584 0.90767252 6.91474976 0.5625 10.75 C0.46066406 11.92046875 0.35882812 13.0909375 0.25390625 14.296875 C0.17011719 15.18890625 0.08632813 16.0809375 0 17 C-0.66 17 -1.32 17 -2 17 C-2 21.62 -2 26.24 -2 31 C-2.66 31 -3.32 31 -4 31 C-4.33 33.97 -4.66 36.94 -5 40 C-5.66 40 -6.32 40 -7 40 C-6.69268013 37.35346869 -6.37940678 34.707885 -6.0625 32.0625 C-5.97548828 31.30775391 -5.88847656 30.55300781 -5.79882812 29.77539062 C-5.11328125 24.11328125 -5.11328125 24.11328125 -4 23 C-2.08550643 15.47073116 -1.13088583 7.67558678 0 0 Z " fill="#FFA2A2" transform="translate(609,655)"/>
<path d="M0 0 C1.20183288 3.64137424 0.94178515 6.83213998 0.625 10.625 C0.53476562 11.77226563 0.44453125 12.91953125 0.3515625 14.1015625 C0 17 0 17 -1 19 C-1.13079422 20.81077327 -1.22995583 22.62388664 -1.3125 24.4375 C-1.7739084 30.79724575 -3.52729848 36.15752385 -6 42 C-6.33 42 -6.66 42 -7 42 C-7.04254356 40.00045254 -7.04080783 37.99958364 -7 36 C-6.505 35.505 -6.505 35.505 -6 35 C-5.64327045 33.33176477 -5.34090409 31.6518293 -5.0625 29.96875 C-4.80339844 28.41027344 -4.80339844 28.41027344 -4.5390625 26.8203125 C-4.36117187 25.72460938 -4.18328125 24.62890625 -4 23.5 C-3.82210937 22.43523438 -3.64421875 21.37046875 -3.4609375 20.2734375 C-2.67028261 15.47050409 -1.93420693 10.68664257 -1.4375 5.84375 C-1 2 -1 2 0 0 Z " fill="#FF9595" transform="translate(628,543)"/>
<path d="M0 0 C1.485 0.99 1.485 0.99 3 2 C3.4765625 4.78515625 3.4765625 4.78515625 3.625 8.0625 C3.48185062 11.84745009 3.48185062 11.84745009 5 15 C5.07179964 16.51928038 5.08392007 18.04167482 5.0625 19.5625 C5.05347656 20.38878906 5.04445313 21.21507812 5.03515625 22.06640625 C5.02355469 22.70449219 5.01195312 23.34257813 5 24 C5.66 24 6.32 24 7 24 C7 26.64 7 29.28 7 32 C6.34 32 5.68 32 5 32 C2.87965119 21.36998463 1.21745669 10.77091097 0 0 Z " fill="#FFBFBF" transform="translate(477,663)"/>
<path d="M0 0 C0.33 0 0.66 0 1 0 C1.20496094 1.13179688 1.40992188 2.26359375 1.62109375 3.4296875 C1.89306972 4.91148761 2.16521387 6.39325685 2.4375 7.875 C2.57220703 8.62136719 2.70691406 9.36773437 2.84570312 10.13671875 C3.54536611 14.18533378 3.54536611 14.18533378 5 18 C5.20617226 19.9128204 5.36632093 21.83075046 5.5 23.75 C5.8130742 27.88456723 6.20746716 31.92411682 7 36 C4.58112915 33.58112915 4.50623037 32.25907651 3.9375 28.9375 C3.58972434 25.66916048 3.58972434 25.66916048 2 23 C1.79016721 20.85795689 1.63176615 18.71075887 1.5 16.5625 C1.35852674 12.12215669 1.35852674 12.12215669 0 8 C-0.13415472 5.3276379 -0.04318541 2.67749512 0 0 Z " fill="#FF8686" transform="translate(438,449)"/>
<path d="M0 0 C1.20059516 3.80470298 0.48777744 6.40454209 -0.4609375 10.25 C-1.09140363 13.46629098 -1.30630307 16.60367408 -1.5 19.875 C-1.86859416 26.04057499 -2.73031267 31.95973989 -4 38 C-4.33 38 -4.66 38 -5 38 C-5.02703381 36.06257659 -5.04641125 34.12504521 -5.0625 32.1875 C-5.07410156 31.10855469 -5.08570313 30.02960938 -5.09765625 28.91796875 C-5 26 -5 26 -4 23 C-3.84739648 21.16875772 -3.7263963 19.33479015 -3.625 17.5 C-3.17101989 11.39731652 -1.82350075 5.82602756 0 0 Z " fill="#FF9A9A" transform="translate(639,481)"/>
<path d="M0 0 C0.33 0 0.66 0 1 0 C1.20496094 1.21558594 1.40992188 2.43117188 1.62109375 3.68359375 C1.89301961 5.26826514 2.16516643 6.85289863 2.4375 8.4375 C2.63956055 9.64116211 2.63956055 9.64116211 2.84570312 10.86914062 C3.20267224 14.75471303 3.20267224 14.75471303 5 18 C5.23653523 20.52596259 5.42173692 23.03107207 5.5625 25.5625 C5.60568359 26.27341797 5.64886719 26.98433594 5.69335938 27.71679688 C5.79971777 29.47761912 5.90038846 31.2387832 6 33 C4 31 4 31 3.8046875 28.6171875 C3.83949219 27.25980469 3.83949219 27.25980469 3.875 25.875 C3.89304687 24.96492187 3.91109375 24.05484375 3.9296875 23.1171875 C3.95289063 22.41851563 3.97609375 21.71984375 4 21 C3.34 21 2.68 21 2 21 C1.90912109 20.04287109 1.90912109 20.04287109 1.81640625 19.06640625 C1.73261719 18.24011719 1.64882813 17.41382813 1.5625 16.5625 C1.48128906 15.73878906 1.40007812 14.91507813 1.31640625 14.06640625 C1.21069185 12.01337975 1.21069185 12.01337975 0 11 C-0.07226502 9.14712498 -0.0838122 7.29166122 -0.0625 5.4375 C-0.05347656 4.42558594 -0.04445313 3.41367187 -0.03515625 2.37109375 C-0.02355469 1.58863281 -0.01195312 0.80617188 0 0 Z " fill="#FF6060" transform="translate(461,579)"/>
<path d="M0 0 C2.87434036 9.29805556 -0.53817458 21.78876803 -3 31 C-3.66 31.66 -4.32 32.32 -5 33 C-5.23423208 26.67573378 -4.3499583 21.16071878 -3 15 C-2.44875326 12.29356526 -1.91225692 9.58424155 -1.375 6.875 C-1.11222024 5.55984764 -0.84921881 4.24473954 -0.5859375 2.9296875 C-0.39257812 1.96289062 -0.19921875 0.99609375 0 0 Z " fill="#FF8C8C" transform="translate(652,406)"/>
<path d="M0 0 C1.485 0.99 1.485 0.99 3 2 C3.29296875 4.6015625 3.29296875 4.6015625 3.1875 7.625 C3.16042969 8.62789063 3.13335937 9.63078125 3.10546875 10.6640625 C3.07066406 11.43492187 3.03585937 12.20578125 3 13 C3.66 13 4.32 13 5 13 C5.33 18.94 5.66 24.88 6 31 C3.5861858 28.5861858 3.60122004 27.56352627 3.18359375 24.23828125 C3.05919922 23.28373047 2.93480469 22.32917969 2.80664062 21.34570312 C2.62391602 19.84426758 2.62391602 19.84426758 2.4375 18.3125 C2.18626016 16.35025245 1.93495941 14.38801269 1.68359375 12.42578125 C1.56741699 11.49588379 1.45124023 10.56598633 1.33154297 9.60791016 C0.92365142 6.39944367 0.46991642 3.19990707 0 0 Z " fill="#FFC4C4" transform="translate(428,392)"/>
<path d="M0 0 C1.0249196 3.18302497 0.91957923 5.21020218 0.125 8.4375 C-1.02976927 13.62626325 -1.39791639 18.71723397 -1.65625 24.01953125 C-2.00087359 27.00757445 -2.75211095 29.27779041 -4 32 C-4.33 32 -4.66 32 -5 32 C-5 29.03 -5 26.06 -5 23 C-4.34 23 -3.68 23 -3 23 C-3 19.04 -3 15.08 -3 11 C-2.34 11 -1.68 11 -1 11 C-1.020625 9.741875 -1.04125 8.48375 -1.0625 7.1875 C-1.10886083 4.35948913 -0.91692961 2.75078884 0 0 Z " fill="#FFD3D3" transform="translate(649,417)"/>
<path d="M0 0 C1.12800972 3.41565561 0.866975 5.90740911 0.22265625 9.421875 C0.03896484 10.44667969 -0.14472656 11.47148438 -0.33398438 12.52734375 C-0.53314453 13.59082031 -0.73230469 14.65429688 -0.9375 15.75 C-1.13279297 16.82894531 -1.32808594 17.90789063 -1.52929688 19.01953125 C-2.01215277 21.68112718 -2.50264169 24.34108255 -3 27 C-3.33 27 -3.66 27 -4 27 C-4.02685938 24.85423363 -4.04633088 22.70837355 -4.0625 20.5625 C-4.07410156 19.36753906 -4.08570313 18.17257812 -4.09765625 16.94140625 C-4 14 -4 14 -3 13 C-2.62913819 11.00661779 -2.30262289 9.00487668 -2 7 C-1.11111111 1.11111111 -1.11111111 1.11111111 0 0 Z " fill="#FFB7B7" transform="translate(616,616)"/>
<path d="M0 0 C2.56657128 2.56657128 2.34000672 3.87287369 2.5625 7.4375 C2.76751306 10.57963901 2.99964773 12.99894319 4 16 C4.22451458 18.22574335 4.40782878 20.45581519 4.5625 22.6875 C4.64628906 23.86699219 4.73007812 25.04648437 4.81640625 26.26171875 C4.87699219 27.16535156 4.93757813 28.06898438 5 29 C4.34 28.67 3.68 28.34 3 28 C2.62109375 25.96875 2.62109375 25.96875 2.4375 23.5 C2.4207737 20.45018475 2.4207737 20.45018475 1 18 C0.84417697 16.65984779 0.74955858 15.31241097 0.68359375 13.96484375 C0.64169922 13.15595703 0.59980469 12.34707031 0.55664062 11.51367188 C0.51732422 10.66353516 0.47800781 9.81339844 0.4375 8.9375 C0.39431641 8.08349609 0.35113281 7.22949219 0.30664062 6.34960938 C0.20023298 4.23327963 0.09958269 2.11666187 0 0 Z " fill="#FF7B7B" transform="translate(456,548)"/>
<path d="M0 0 C0.33 0 0.66 0 1 0 C3.29275811 7.86088496 4.07471986 15.88903365 5 24 C4.67 23.01 4.34 22.02 4 21 C3.34 21 2.68 21 2 21 C1.93941406 20.37351562 1.87882812 19.74703125 1.81640625 19.1015625 C1.69072266 17.87566406 1.69072266 17.87566406 1.5625 16.625 C1.48128906 15.81289063 1.40007812 15.00078125 1.31640625 14.1640625 C1.10909886 11.95727195 1.10909886 11.95727195 0 10 C-0.06996014 8.29297265 -0.08440154 6.58331997 -0.0625 4.875 C-0.05347656 3.96492188 -0.04445313 3.05484375 -0.03515625 2.1171875 C-0.02355469 1.41851562 -0.01195312 0.71984375 0 0 Z " fill="#FF7373" transform="translate(427,391)"/>
<path d="M0 0 C0.66 0 1.32 0 2 0 C3.5476555 3.09531099 3.44409451 6.3666763 3.71875 9.78515625 C3.7665741 11.97070668 3.7665741 11.97070668 5 13 C5.07244053 15.01964199 5.08377188 17.04167124 5.0625 19.0625 C5.05347656 20.16722656 5.04445313 21.27195312 5.03515625 22.41015625 C5.02355469 23.26480469 5.01195312 24.11945312 5 25 C4.67 25 4.34 25 4 25 C2.6195272 18.82137901 1.69729063 12.76206883 1.24609375 6.4453125 C1.02044966 4.20319822 0.60931728 2.16534239 0 0 Z " fill="#FFDADA" transform="translate(456,546)"/>
<path d="M0 0 C0.309375 0.639375 0.61875 1.27875 0.9375 1.9375 C1.8345163 3.93610821 1.8345163 3.93610821 3 5 C3.23701239 7.85877909 3.42219182 10.69883297 3.5625 13.5625 C3.60568359 14.36880859 3.64886719 15.17511719 3.69335938 16.00585938 C3.79975262 18.00368805 3.90040888 20.0018207 4 22 C3.34 21.67 2.68 21.34 2 21 C2 16.71 2 12.42 2 8 C1.34 8 0.68 8 0 8 C0 5.36 0 2.72 0 0 Z " fill="#FFA6A6" transform="translate(434,425)"/>
<path d="M0 0 C0.99 0 1.98 0 3 0 C3.33 5.61 3.66 11.22 4 17 C2.04020631 14.06030946 1.51679931 12.44977414 0.875 9.0625 C0.70742188 8.20785156 0.53984375 7.35320313 0.3671875 6.47265625 C0 4 0 4 0 0 Z " fill="#FFB8B8" transform="translate(460,571)"/>
<path d="M0 0 C0.99 0.33 1.98 0.66 3 1 C3 4.63 3 8.26 3 12 C3.66 12 4.32 12 5 12 C5 13.65 5 15.3 5 17 C0.61805739 12.41887818 0 6.08938411 0 0 Z " fill="#FFD6D6" transform="translate(443,475)"/>
<path d="M0 0 C0.33 0 0.66 0 1 0 C1.24794402 6.5705166 0.32388229 12.56971459 -1 19 C-1.33 19 -1.66 19 -2 19 C-2.05451714 16.95863605 -2.09302485 14.91684144 -2.125 12.875 C-2.14820313 11.73804688 -2.17140625 10.60109375 -2.1953125 9.4296875 C-1.99672109 5.94242233 -1.2524801 3.2446138 0 0 Z " fill="#FFDDDD" transform="translate(652,398)"/>
<path d="M0 0 C1.08635236 3.32069408 0.90041441 5.66205214 0.1875 9.0625 C0.01605469 9.91972656 -0.15539062 10.77695312 -0.33203125 11.66015625 C-1 14 -1 14 -3 17 C-3.04254356 15.00045254 -3.04080783 12.99958364 -3 11 C-2.67 10.67 -2.34 10.34 -2 10 C-1.6068352 8.32115762 -1.25914548 6.63149955 -0.9375 4.9375 C-0.76089844 4.01839844 -0.58429687 3.09929688 -0.40234375 2.15234375 C-0.26957031 1.44207031 -0.13679687 0.73179687 0 0 Z " fill="#FFB2B2" transform="translate(624,568)"/>
<path d="M0 0 C1.485 0.99 1.485 0.99 3 2 C3.29296875 4.3828125 3.29296875 4.3828125 3.1875 7.125 C3.16042969 8.03507813 3.13335937 8.94515625 3.10546875 9.8828125 C3.07066406 10.58148437 3.03585937 11.28015625 3 12 C2.67 12 2.34 12 2 12 C0.86235649 7.73383684 0 4.43513689 0 0 Z " fill="#FFCCCC" transform="translate(477,663)"/>
<path d="M0 0 C2.62374802 5.24749603 3.09534716 8.08847633 3 14 C2.67 14 2.34 14 2 14 C2 12.02 2 10.04 2 8 C1.34 8 0.68 8 0 8 C0 5.36 0 2.72 0 0 Z " fill="#FF8B8B" transform="translate(472,638)"/>
<path d="M0 0 C0.33 0 0.66 0 1 0 C2.7479503 5.24385089 3.19392201 9.47322267 3 15 C2.67 15 2.34 15 2 15 C0.2520497 9.75614911 -0.19392201 5.52677733 0 0 Z " fill="#FF9D9D" transform="translate(453,531)"/>
<path d="M0 0 C0.66 0 1.32 0 2 0 C1.5020163 3.73487777 1.12508244 5.81237635 -1 9 C-1.09765625 2.84765625 -1.09765625 2.84765625 -1 1 C-0.67 0.67 -0.34 0.34 0 0 Z " fill="#FFD3D3" transform="translate(632,515)"/>
</svg>
