<?xml version="1.0" encoding="UTF-8"?>
<svg version="1.1" xmlns="http://www.w3.org/2000/svg" width="1080" height="1080">
<path d="M0 0 C1.54858726 1.34366533 3.07026938 2.71901038 4.5625 4.125 C5.32949219 4.83914062 6.09648438 5.55328125 6.88671875 6.2890625 C23.60345655 23.26123432 25.74927516 45.04831798 25.625 67.6875 C25.61997543 69.28450381 25.61541421 70.88150914 25.61132812 72.47851562 C25.60039728 76.36071533 25.58318533 80.24284051 25.5625 84.125 C26.74553711 84.24939453 27.92857422 84.37378906 29.14746094 84.50195312 C32.99407253 84.98576378 36.51075041 85.88374517 40.203125 87.09375 C41.42837891 87.49505127 42.65363281 87.89635254 43.91601562 88.30981445 C45.21531734 88.74680404 46.51413638 89.18523103 47.8125 89.625 C48.81059692 89.96112808 48.81059692 89.96112808 49.82885742 90.30404663 C94.57999344 105.44263003 135.55789088 133.53739431 164.5625 171.125 C165.00916016 171.68993164 165.45582031 172.25486328 165.91601562 172.83691406 C174.48922729 183.68974155 181.73629888 195.10644084 188.5625 207.125 C188.99804199 207.88087402 189.43358398 208.63674805 189.88232422 209.41552734 C207.80208185 240.7561569 217.94313553 276.31392345 223.8125 311.75 C224.03897217 313.08538818 224.03897217 313.08538818 224.27001953 314.44775391 C227.09560437 332.57673172 227.90343102 350.45729152 226.67973912 368.74457252 C226.30076424 374.46829543 225.99011364 380.1959778 225.66955566 385.92321777 C225.5659956 387.74139846 225.5659956 387.74139846 225.46034342 389.59631008 C224.02112234 415.23052484 223.24013306 440.89681489 222.625 466.5625 C222.59926431 467.6153934 222.59926431 467.6153934 222.57300872 468.68955737 C217.29569293 556.42942148 217.29569293 556.42942148 252.85578233 632.41736287 C262.70972471 642.75609409 274.07717589 650.99545609 285.95532227 658.87084961 C286.98377447 659.56390512 288.01222668 660.25696064 289.0718441 660.97101784 C293.9440288 664.20895178 298.72154429 667.11341854 304.01989746 669.59924316 C309.40844727 672.62084961 309.40844727 672.62084961 317.5625 682.125 C317.5625 697.305 317.5625 712.485 317.5625 728.125 C79.9625 728.125 -157.6375 728.125 -402.4375 728.125 C-402.4375 682.125 -402.4375 682.125 -394.28344727 672.71606445 C-391.55433647 671.21505158 -388.81761076 669.71687752 -385.98696709 668.41743851 C-380.62337125 665.84778863 -375.77003128 662.47113782 -370.83056641 659.17651367 C-369.78254443 658.48822983 -368.73452246 657.79994598 -367.65474224 657.09080505 C-342.30510697 640.19713102 -318.35970439 617.78730715 -312.01084137 586.73374939 C-304.89889195 546.58118854 -306.57000582 504.4194427 -307.5625 463.8125 C-307.57979465 463.09413233 -307.59708931 462.37576467 -307.61490804 461.63562828 C-308.26339336 434.84102861 -309.13990148 408.05166929 -310.65785217 381.29110718 C-313.22995754 335.54597046 -313.22995754 335.54597046 -309.4375 314.125 C-309.1855247 312.52858706 -308.93650122 310.93170414 -308.6910553 309.33427429 C-308.10850963 305.67893765 -307.42843394 302.06372085 -306.6875 298.4375 C-306.42928467 297.15190186 -306.17106934 295.86630371 -305.9050293 294.54174805 C-300.16467289 266.47237265 -291.00637241 239.40861318 -277.4375 214.125 C-276.79574487 212.87103345 -276.15645992 211.61579993 -275.51953125 210.359375 C-265.19132298 190.18466527 -251.41385934 170.5897007 -235.13671875 154.82421875 C-233.30083496 153.05764113 -233.30083496 153.05764113 -231.4375 150.5625 C-229.09471488 147.70723064 -226.48667062 145.44915629 -223.6796875 143.05859375 C-221.37685462 141.07270129 -219.16302577 139.00941204 -216.9375 136.9375 C-206.36564425 127.42120588 -194.74148413 119.23583497 -182.4375 112.125 C-181.48447998 111.55749023 -181.48447998 111.55749023 -180.51220703 110.97851562 C-164.0795511 101.20625866 -146.61897041 93.92375384 -128.4375 88.0625 C-127.54836914 87.77544189 -126.65923828 87.48838379 -125.74316406 87.19262695 C-120.61318295 85.60629252 -115.77112394 84.73016659 -110.4375 84.125 C-110.45321045 83.0827124 -110.4689209 82.0404248 -110.48510742 80.96655273 C-110.54023667 77.02473977 -110.57414518 73.08295927 -110.60229492 69.14086914 C-110.61719567 67.44875318 -110.63752334 65.75667452 -110.66381836 64.06469727 C-110.874456 50.14196224 -110.54558476 36.28651853 -103.6875 23.75 C-103.16361694 22.75141968 -103.16361694 22.75141968 -102.62915039 21.73266602 C-99.76206593 16.40937879 -96.49981194 11.61688975 -92.4375 7.125 C-91.90769531 6.51527344 -91.37789063 5.90554687 -90.83203125 5.27734375 C-66.90445147 -20.58262964 -26.88816993 -20.48820368 0 0 Z " fill="#5DAEFB" transform="translate(582.4375,126.875)"/>
<path d="M0 0 C59.4 0 118.8 0 180 0 C180 14.02861084 180 14.02861084 178.375 20.375 C178.19678711 21.09196045 178.01857422 21.8089209 177.83496094 22.54760742 C171.99677682 44.8655727 157.67041058 64.76340702 138 77 C116.37822196 89.42029286 91.62607248 94.36694616 67.08984375 87.97265625 C52.6932972 83.44074716 40.37664186 76.98511873 29 67 C28.25105469 66.34644531 27.50210937 65.69289063 26.73046875 65.01953125 C13.90536858 53.04794037 5.8426259 37.25685149 1.625 20.375 C1.45693848 19.71902832 1.28887695 19.06305664 1.11572266 18.38720703 C-0.34064727 11.97445602 0 6.97459747 0 0 Z " fill="#3598FD" transform="translate(450,900)"/>
</svg>
